<?xml version="1.0" encoding="iso-8859-1"?>
<!-- Generator: Adobe Illustrator 19.0.0, SVG Export Plug-In . SVG Version: 6.00 Build 0)  -->
<svg version="1.1" id="Layer_1" xmlns="http://www.w3.org/2000/svg" xmlns:xlink="http://www.w3.org/1999/xlink" x="0px" y="0px"
	 viewBox="0 0 512.001 512.001" style="enable-background:new 0 0 512.001 512.001;" xml:space="preserve">
<path style="fill:#E4EAF6;" d="M235.945,8.792C116.111,18.214,18.872,114.999,8.907,234.789
	c-4.706,56.57,9.626,109.559,37.244,153.327c3.095,4.904,3.688,10.97,1.335,16.27L8.803,491.513
	c-3.289,7.408,4.278,14.974,11.685,11.685l87.127-38.683c5.301-2.354,11.366-1.76,16.27,1.335
	c43.766,27.619,96.752,41.948,153.32,37.245c119.788-9.961,216.574-107.194,226.003-227.024
	C515.228,123.305,388.708-3.22,235.945,8.792z"/>
<circle style="fill:#00D2FF;" cx="256.005" cy="255.994" r="213.783"/>
<path style="fill:#18BDF6;" d="M256.011,42.207c-118.069,0-213.783,95.714-213.783,213.783s95.714,213.783,213.783,213.783
	s213.783-95.714,213.783-213.783S374.08,42.207,256.011,42.207z M256.011,444.107c-103.894,0-188.117-84.223-188.117-188.117
	S152.117,67.872,256.011,67.872s188.117,84.223,188.117,188.118C444.129,359.884,359.906,444.107,256.011,444.107z"/>
<path d="M437.039,74.972C383.996,21.925,310.474-5.111,235.316,0.8C175.464,5.507,118.731,31.758,75.569,74.72
	C32.407,117.684,5.894,174.295,0.918,234.124c-4.68,56.258,8.617,110.987,38.454,158.27c1.715,2.718,2.01,5.985,0.787,8.738
	L1.476,488.259c-2.855,6.431-1.485,13.801,3.491,18.775c4.975,4.975,12.346,6.345,18.775,3.49l87.127-38.683
	c2.754-1.223,6.02-0.928,8.738,0.788c41.094,25.933,87.813,39.371,136.276,39.371c7.292,0,14.628-0.305,21.985-0.916
	c59.828-4.975,116.439-31.485,159.403-74.644c42.963-43.158,69.217-99.889,73.927-159.74
	C517.113,201.546,490.082,128.018,437.039,74.972z M495.215,275.442c-4.41,56.062-29.024,109.222-69.306,149.686
	c-40.283,40.466-93.33,65.317-149.369,69.977c-52.756,4.384-104.065-8.074-148.377-36.035c-7.252-4.576-16.149-5.278-23.802-1.882
	l-87.127,38.683c-0.208,0.093-0.525,0.233-0.932-0.173c-0.406-0.406-0.266-0.723-0.173-0.932l38.682-87.127
	c3.398-7.652,2.695-16.551-1.881-23.802c-27.963-44.314-40.423-95.624-36.034-148.384c4.662-56.04,29.517-109.087,69.985-149.368
	c40.467-40.281,93.629-64.892,149.693-69.3c6.388-0.502,12.75-0.75,19.098-0.75c63.699,0,124.814,25.056,170.029,70.276
	C475.423,136.034,500.761,204.97,495.215,275.442z"/>
<path d="M477.81,255.99c0-49.595-16.364-95.439-43.974-132.42c-0.295-0.484-0.637-0.935-1.024-1.346
	C392.276,68.778,328.111,34.19,256.011,34.19c-71.957,0-136.011,34.452-176.56,87.719c-0.645,0.611-1.189,1.325-1.602,2.122
	c-27.352,36.833-43.573,82.398-43.634,131.684c-0.003,0.096-0.015,0.189-0.015,0.286c0,0.099,0.011,0.196,0.015,0.294
	c0.067,49.268,16.284,94.82,43.626,131.643c0.418,0.808,0.97,1.533,1.626,2.152c40.493,53.18,104.416,87.599,176.24,87.696
	c0.098,0.003,0.195,0.015,0.294,0.015c0.097,0,0.19-0.011,0.286-0.015c71.971-0.089,136.011-34.637,176.497-87.993
	c0.408-0.428,0.767-0.901,1.073-1.411C461.455,351.405,477.81,305.572,477.81,255.99z M50.417,264.017h69.415
	c0.871,40.397,8.308,78.936,21.465,112.227H89.148C66.152,344.425,52.028,305.801,50.417,264.017z M89.144,135.74h52.151
	c-13.158,33.296-20.595,71.84-21.464,112.243H50.416C52.023,206.194,66.146,167.564,89.144,135.74z M461.607,247.984H392.19
	c-0.869-40.404-8.304-78.948-21.464-112.243h52.151C445.876,167.564,459.999,206.194,461.607,247.984z M376.154,247.984H264.017
	V135.74h89.394C367.342,168.442,375.239,207.146,376.154,247.984z M264.017,119.706V50.691
	c28.369,3.239,55.038,23.628,75.812,58.256c2.09,3.484,4.093,7.076,6.014,10.76C345.842,119.706,264.017,119.706,264.017,119.706z
	 M247.983,50.693v69.013h-81.804c1.921-3.685,3.924-7.276,6.014-10.76C192.962,74.329,219.623,53.94,247.983,50.693z
	 M247.983,135.74v112.243H135.868c0.915-40.838,8.812-79.541,22.743-112.243H247.983z M135.869,264.017h112.115v112.227h-89.37
	C144.683,343.548,136.786,304.85,135.869,264.017z M247.983,392.278v69.008c-28.36-3.246-55.021-23.635-75.79-58.254
	c-2.089-3.483-4.091-7.072-6.012-10.754H247.983z M264.017,461.287v-69.01h81.823c-1.921,3.682-3.922,7.272-6.012,10.754
	C319.055,437.66,292.386,458.05,264.017,461.287z M264.017,376.245V264.017h112.136c-0.917,40.832-8.815,79.53-22.745,112.227
	H264.017z M392.19,264.017h69.415c-1.612,41.784-15.736,80.408-38.731,112.227h-52.149
	C383.883,342.953,391.319,304.416,392.19,264.017z M410.033,119.706h-46.281c-3.151-6.599-6.54-12.952-10.173-19.008
	c-9.645-16.076-20.543-29.445-32.359-39.878C355.819,72.41,386.342,92.964,410.033,119.706z M190.804,60.82
	c-11.816,10.433-22.714,23.802-32.359,39.878c-3.634,6.058-7.023,12.409-10.173,19.008H101.99
	C125.68,92.964,156.203,72.41,190.804,60.82z M101.995,392.278h46.279c3.15,6.597,6.537,12.948,10.171,19.003
	c9.645,16.076,20.543,29.445,32.359,39.878C156.205,439.57,125.684,419.018,101.995,392.278z M321.219,451.159
	c11.816-10.433,22.714-23.802,32.359-39.878c3.633-6.055,7.021-12.405,10.171-19.003h46.279
	C386.338,419.018,355.817,439.57,321.219,451.159z"/>
<g>
</g>
<g>
</g>
<g>
</g>
<g>
</g>
<g>
</g>
<g>
</g>
<g>
</g>
<g>
</g>
<g>
</g>
<g>
</g>
<g>
</g>
<g>
</g>
<g>
</g>
<g>
</g>
<g>
</g>
</svg>
